<svg xmlns="http://www.w3.org/2000/svg" xmlns:xlink="http://www.w3.org/1999/xlink" width="500" zoomAndPan="magnify" viewBox="0 0 375 149.999998" height="200" preserveAspectRatio="xMidYMid meet" version="1.0"><defs><g/></defs><g fill="#000000" fill-opacity="1"><g transform="translate(24.518556, 73.38316)"><g><path d="M 14.9375 -48.5 L 3.875 -48.5 L 3.875 0 L 31.625 0 L 31.625 -9.703125 L 14.9375 -9.703125 Z M 14.9375 -48.5 "/></g></g></g><g fill="#000000" fill-opacity="1"><g transform="translate(60.029491, 73.38316)"><g><path d="M 41.984375 -48.5 L 30.921875 -48.5 L 30.921875 -20.46875 C 30.921875 -12.34375 28.453125 -10 23.046875 -10 C 17.640625 -10 15.171875 -12.34375 15.171875 -20.46875 L 15.171875 -48.5 L 4.109375 -48.5 L 4.109375 -17.234375 C 4.109375 -5.234375 10.703125 0.875 23.046875 0.875 C 35.390625 0.875 41.984375 -5.234375 41.984375 -17.234375 Z M 41.984375 -48.5 "/></g></g></g><g fill="#000000" fill-opacity="1"><g transform="translate(106.181954, 73.38316)"><g><path d="M 53.625 -48.5 L 39.328125 -48.5 L 27.875 -34.15625 L 16.40625 -48.5 L 2.703125 -48.5 L 21.046875 -24.578125 L 2.703125 0 L 16.40625 0 L 27.875 -15.40625 L 39.328125 0 L 53.625 0 L 34.6875 -24.578125 Z M 53.625 -48.5 "/></g></g></g><g fill="#000000" fill-opacity="1"><g transform="translate(162.505594, 73.38316)"><g><path d="M 31.875 -48.5 L 4.109375 -48.5 L 4.109375 0 L 31.875 0 L 31.875 -9.703125 L 15.171875 -9.703125 L 15.171875 -19.46875 L 31.15625 -19.46875 L 31.15625 -29.15625 L 15.171875 -29.15625 L 15.171875 -38.8125 L 31.875 -38.8125 Z M 31.875 -48.5 "/></g></g></g><g fill="#000000" fill-opacity="1"><g transform="translate(198.545668, 73.38316)"><g><path d="M 14.9375 -48.5 L 3.875 -48.5 L 3.875 0 L 31.625 0 L 31.625 -9.703125 L 14.9375 -9.703125 Z M 14.9375 -48.5 "/></g></g></g><g fill="#000000" fill-opacity="1"><g transform="translate(234.056615, 73.38316)"><g><path d="M 32.390625 -48.5 L 22.171875 -48.5 L 2.640625 0 L 14.515625 0 L 18.046875 -9.703125 L 36.515625 -9.703125 L 40.15625 0 L 52.03125 0 Z M 32.75 -19.40625 L 21.8125 -19.40625 L 27.21875 -33.515625 Z M 32.75 -19.40625 "/></g></g></g><g fill="#000000" fill-opacity="1"><g transform="translate(288.792832, 73.38316)"><g><path d="M 15.46875 -48.5 L 4.40625 -48.5 L 4.40625 0 L 15.46875 0 Z M 15.46875 -48.5 "/></g></g></g><g fill="#000000" fill-opacity="1"><g transform="translate(308.664856, 73.38316)"><g><path d="M 3.765625 -48.5 L 3.765625 0 L 14.8125 0 L 14.8125 -17.984375 C 15.8125 -17.984375 17 -17.984375 18.34375 -18.046875 L 30.21875 0 L 42.390625 0 L 29.046875 -20.28125 C 33.921875 -22.28125 37.984375 -26.171875 37.984375 -33.578125 C 37.984375 -40.984375 33.15625 -48.21875 21.453125 -48.5 Z M 14.8125 -26.8125 L 14.8125 -39.6875 C 21.21875 -39.6875 26.34375 -38.578125 26.34375 -33.21875 C 26.34375 -27.515625 20.21875 -26.921875 14.8125 -26.8125 Z M 14.8125 -26.8125 "/></g></g></g><g fill="#000000" fill-opacity="1"><g transform="translate(105.254879, 109.202727)"><g><path d="M 6.171875 -5.171875 L 3.171875 -5.171875 L 3.171875 0 L 1.484375 0 L 1.484375 -12.796875 L 5.71875 -12.796875 C 7.15625 -12.796875 8.257812 -12.46875 9.03125 -11.8125 C 9.8125 -11.15625 10.203125 -10.203125 10.203125 -8.953125 C 10.203125 -8.148438 9.984375 -7.453125 9.546875 -6.859375 C 9.117188 -6.273438 8.523438 -5.832031 7.765625 -5.53125 L 10.765625 -0.109375 L 10.765625 0 L 8.953125 0 Z M 3.171875 -6.5625 L 5.765625 -6.5625 C 6.597656 -6.5625 7.265625 -6.773438 7.765625 -7.203125 C 8.265625 -7.640625 8.515625 -8.222656 8.515625 -8.953125 C 8.515625 -9.742188 8.273438 -10.347656 7.796875 -10.765625 C 7.328125 -11.191406 6.644531 -11.40625 5.75 -11.40625 L 3.171875 -11.40625 Z M 3.171875 -6.5625 "/></g></g><g transform="translate(116.337887, 109.202727)"><g><path d="M 8.71875 -5.921875 L 3.171875 -5.921875 L 3.171875 -1.375 L 9.609375 -1.375 L 9.609375 0 L 1.484375 0 L 1.484375 -12.796875 L 9.53125 -12.796875 L 9.53125 -11.40625 L 3.171875 -11.40625 L 3.171875 -7.296875 L 8.71875 -7.296875 Z M 8.71875 -5.921875 "/></g></g><g transform="translate(126.568355, 109.202727)"><g><path d="M 8.546875 -3.34375 L 3.1875 -3.34375 L 1.984375 0 L 0.25 0 L 5.140625 -12.796875 L 6.609375 -12.796875 L 11.5 0 L 9.78125 0 Z M 3.703125 -4.734375 L 8.046875 -4.734375 L 5.875 -10.71875 Z M 3.703125 -4.734375 "/></g></g><g transform="translate(138.310542, 109.202727)"><g><path d="M 3.1875 -1.375 L 9.25 -1.375 L 9.25 0 L 1.484375 0 L 1.484375 -12.796875 L 3.1875 -12.796875 Z M 3.1875 -1.375 "/></g></g><g transform="translate(147.996088, 109.202727)"><g/></g><g transform="translate(152.452142, 109.202727)"><g><path d="M 3.1875 -1.375 L 9.25 -1.375 L 9.25 0 L 1.484375 0 L 1.484375 -12.796875 L 3.1875 -12.796875 Z M 3.1875 -1.375 "/></g></g><g transform="translate(162.137689, 109.202727)"><g><path d="M 10.5 -12.796875 L 10.5 -4.09375 C 10.488281 -2.882812 10.109375 -1.894531 9.359375 -1.125 C 8.609375 -0.363281 7.585938 0.0625 6.296875 0.15625 L 5.84375 0.171875 C 4.445312 0.171875 3.332031 -0.203125 2.5 -0.953125 C 1.664062 -1.710938 1.242188 -2.753906 1.234375 -4.078125 L 1.234375 -12.796875 L 2.90625 -12.796875 L 2.90625 -4.125 C 2.90625 -3.207031 3.160156 -2.488281 3.671875 -1.96875 C 4.179688 -1.457031 4.90625 -1.203125 5.84375 -1.203125 C 6.800781 -1.203125 7.53125 -1.457031 8.03125 -1.96875 C 8.539062 -2.476562 8.796875 -3.195312 8.796875 -4.125 L 8.796875 -12.796875 Z M 10.5 -12.796875 "/></g></g><g transform="translate(173.809563, 109.202727)"><g><path d="M 5.65625 -7.890625 L 8.734375 -12.796875 L 10.71875 -12.796875 L 6.671875 -6.453125 L 10.8125 0 L 8.8125 0 L 5.65625 -5 L 2.5 0 L 0.5 0 L 4.65625 -6.453125 L 0.59375 -12.796875 L 2.578125 -12.796875 Z M 5.65625 -7.890625 "/></g></g><g transform="translate(185.094719, 109.202727)"><g><path d="M 10.5 -12.796875 L 10.5 -4.09375 C 10.488281 -2.882812 10.109375 -1.894531 9.359375 -1.125 C 8.609375 -0.363281 7.585938 0.0625 6.296875 0.15625 L 5.84375 0.171875 C 4.445312 0.171875 3.332031 -0.203125 2.5 -0.953125 C 1.664062 -1.710938 1.242188 -2.753906 1.234375 -4.078125 L 1.234375 -12.796875 L 2.90625 -12.796875 L 2.90625 -4.125 C 2.90625 -3.207031 3.160156 -2.488281 3.671875 -1.96875 C 4.179688 -1.457031 4.90625 -1.203125 5.84375 -1.203125 C 6.800781 -1.203125 7.53125 -1.457031 8.03125 -1.96875 C 8.539062 -2.476562 8.796875 -3.195312 8.796875 -4.125 L 8.796875 -12.796875 Z M 10.5 -12.796875 "/></g></g><g transform="translate(196.766593, 109.202727)"><g><path d="M 6.171875 -5.171875 L 3.171875 -5.171875 L 3.171875 0 L 1.484375 0 L 1.484375 -12.796875 L 5.71875 -12.796875 C 7.15625 -12.796875 8.257812 -12.46875 9.03125 -11.8125 C 9.8125 -11.15625 10.203125 -10.203125 10.203125 -8.953125 C 10.203125 -8.148438 9.984375 -7.453125 9.546875 -6.859375 C 9.117188 -6.273438 8.523438 -5.832031 7.765625 -5.53125 L 10.765625 -0.109375 L 10.765625 0 L 8.953125 0 Z M 3.171875 -6.5625 L 5.765625 -6.5625 C 6.597656 -6.5625 7.265625 -6.773438 7.765625 -7.203125 C 8.265625 -7.640625 8.515625 -8.222656 8.515625 -8.953125 C 8.515625 -9.742188 8.273438 -10.347656 7.796875 -10.765625 C 7.328125 -11.191406 6.644531 -11.40625 5.75 -11.40625 L 3.171875 -11.40625 Z M 3.171875 -6.5625 "/></g></g><g transform="translate(207.8496, 109.202727)"><g><path d="M 5.390625 -6.375 L 8.734375 -12.796875 L 10.640625 -12.796875 L 6.234375 -4.765625 L 6.234375 0 L 4.546875 0 L 4.546875 -4.765625 L 0.125 -12.796875 L 2.0625 -12.796875 Z M 5.390625 -6.375 "/></g></g><g transform="translate(218.660147, 109.202727)"><g/></g><g transform="translate(223.116201, 109.202727)"><g><path d="M 11.328125 0 L 9.625 0 L 9.625 -5.921875 L 3.171875 -5.921875 L 3.171875 0 L 1.484375 0 L 1.484375 -12.796875 L 3.171875 -12.796875 L 3.171875 -7.296875 L 9.625 -7.296875 L 9.625 -12.796875 L 11.328125 -12.796875 Z M 11.328125 0 "/></g></g><g transform="translate(235.948232, 109.202727)"><g><path d="M 11.328125 -5.984375 C 11.328125 -4.734375 11.113281 -3.640625 10.6875 -2.703125 C 10.269531 -1.765625 9.675781 -1.050781 8.90625 -0.5625 C 8.132812 -0.0703125 7.234375 0.171875 6.203125 0.171875 C 5.191406 0.171875 4.296875 -0.0703125 3.515625 -0.5625 C 2.734375 -1.0625 2.128906 -1.769531 1.703125 -2.6875 C 1.273438 -3.601562 1.050781 -4.664062 1.03125 -5.875 L 1.03125 -6.796875 C 1.03125 -8.023438 1.242188 -9.109375 1.671875 -10.046875 C 2.109375 -10.992188 2.71875 -11.71875 3.5 -12.21875 C 4.28125 -12.71875 5.171875 -12.96875 6.171875 -12.96875 C 7.203125 -12.96875 8.109375 -12.71875 8.890625 -12.21875 C 9.671875 -11.726562 10.269531 -11.015625 10.6875 -10.078125 C 11.113281 -9.140625 11.328125 -8.046875 11.328125 -6.796875 Z M 9.65625 -6.8125 C 9.65625 -8.332031 9.347656 -9.492188 8.734375 -10.296875 C 8.128906 -11.109375 7.273438 -11.515625 6.171875 -11.515625 C 5.109375 -11.515625 4.269531 -11.109375 3.65625 -10.296875 C 3.050781 -9.492188 2.738281 -8.367188 2.71875 -6.921875 L 2.71875 -5.984375 C 2.71875 -4.515625 3.023438 -3.359375 3.640625 -2.515625 C 4.265625 -1.671875 5.117188 -1.25 6.203125 -1.25 C 7.285156 -1.25 8.125 -1.644531 8.71875 -2.4375 C 9.320312 -3.238281 9.632812 -4.378906 9.65625 -5.859375 Z M 9.65625 -6.8125 "/></g></g><g transform="translate(248.323231, 109.202727)"><g><path d="M 5.25 -5.703125 C 3.800781 -6.117188 2.75 -6.628906 2.09375 -7.234375 C 1.4375 -7.835938 1.109375 -8.585938 1.109375 -9.484375 C 1.109375 -10.492188 1.507812 -11.328125 2.3125 -11.984375 C 3.125 -12.640625 4.171875 -12.96875 5.453125 -12.96875 C 6.335938 -12.96875 7.125 -12.796875 7.8125 -12.453125 C 8.5 -12.117188 9.03125 -11.648438 9.40625 -11.046875 C 9.78125 -10.453125 9.96875 -9.800781 9.96875 -9.09375 L 8.28125 -9.09375 C 8.28125 -9.863281 8.03125 -10.46875 7.53125 -10.90625 C 7.039062 -11.351562 6.347656 -11.578125 5.453125 -11.578125 C 4.617188 -11.578125 3.96875 -11.394531 3.5 -11.03125 C 3.039062 -10.664062 2.8125 -10.160156 2.8125 -9.515625 C 2.8125 -8.992188 3.03125 -8.550781 3.46875 -8.1875 C 3.914062 -7.820312 4.671875 -7.488281 5.734375 -7.1875 C 6.796875 -6.894531 7.625 -6.566406 8.21875 -6.203125 C 8.820312 -5.847656 9.269531 -5.429688 9.5625 -4.953125 C 9.851562 -4.472656 10 -3.90625 10 -3.25 C 10 -2.21875 9.59375 -1.390625 8.78125 -0.765625 C 7.976562 -0.140625 6.898438 0.171875 5.546875 0.171875 C 4.671875 0.171875 3.847656 0.00390625 3.078125 -0.328125 C 2.316406 -0.660156 1.726562 -1.117188 1.3125 -1.703125 C 0.90625 -2.296875 0.703125 -2.960938 0.703125 -3.703125 L 2.40625 -3.703125 C 2.40625 -2.929688 2.6875 -2.320312 3.25 -1.875 C 3.820312 -1.425781 4.585938 -1.203125 5.546875 -1.203125 C 6.429688 -1.203125 7.113281 -1.382812 7.59375 -1.75 C 8.070312 -2.113281 8.3125 -2.609375 8.3125 -3.234375 C 8.3125 -3.859375 8.085938 -4.34375 7.640625 -4.6875 C 7.203125 -5.03125 6.40625 -5.367188 5.25 -5.703125 Z M 5.25 -5.703125 "/></g></g><g transform="translate(259.001941, 109.202727)"><g><path d="M 10.328125 -11.40625 L 6.21875 -11.40625 L 6.21875 0 L 4.53125 0 L 4.53125 -11.40625 L 0.4375 -11.40625 L 0.4375 -12.796875 L 10.328125 -12.796875 Z M 10.328125 -11.40625 "/></g></g></g></svg>